<?xml version="1.0" encoding="UTF-8" standalone="no" ?>
<!DOCTYPE svg PUBLIC "-//W3C//DTD SVG 1.1//EN" "http://www.w3.org/Graphics/SVG/1.1/DTD/svg11.dtd">
<svg xmlns="http://www.w3.org/2000/svg" xmlns:xlink="http://www.w3.org/1999/xlink" version="1.1" width="1280" height="1024" viewBox="0 0 1280 1024" xml:space="preserve">
<desc>Created with Fabric.js 5.3.0</desc>
<defs>
</defs>
<g transform="matrix(1 0 0 1 640 512)" id="background-logo"  >
<rect style="stroke: none; stroke-width: 0; stroke-dasharray: none; stroke-linecap: butt; stroke-dashoffset: 0; stroke-linejoin: miter; stroke-miterlimit: 4; fill: rgb(0,0,0); fill-rule: nonzero; opacity: 1;"  paint-order="stroke"  x="-640" y="-512" rx="0" ry="0" width="1280" height="1024" />
</g>
<g transform="matrix(2.384887843732854 0 0 2.384887843732854 640 433.5969913984578)" id="logo-logo"  >
<g style=""  paint-order="stroke"   >
		<g transform="matrix(0.8725166819839432 0 0 0.8725166819839432 0 0)"  >
<g style=""  paint-order="stroke"   >
		<g transform="matrix(1 0 0 1 0 0)"  >
<linearGradient id="SVGID_11576_18608" gradientUnits="userSpaceOnUse" gradientTransform="matrix(1 0 0 1 0 0)"  x1="0" y1="0" x2="0" y2="201">
<stop offset="0%" style="stop-color:rgb(250,217,97);stop-opacity: 1"/>
<stop offset="100%" style="stop-color:rgb(247,107,28);stop-opacity: 1"/>
</linearGradient>
<path style="stroke: none; stroke-width: 1; stroke-dasharray: none; stroke-linecap: butt; stroke-dashoffset: 0; stroke-linejoin: miter; stroke-miterlimit: 4; fill: url(#SVGID_11576_18608); fill-rule: nonzero; opacity: 1;"  paint-order="stroke"  transform=" translate(-100, -100)" d="M 100 0 C 44.9 0 0 44.9 0 100 C 0 155.1 44.9 200 100 200 C 155.1 200 200 155.1 200 100 C 200 44.9 155.1 0 100 0 z M 100 196.1 C 47 196.1 3.9 153 3.9 100 C 3.9 47 47 3.9 100 3.9 C 153 3.9 196.1 47 196.1 100 C 196.1 153 153 196.1 100 196.1 z" stroke-linecap="round" />
</g>
		<g transform="matrix(1 0 0 1 0 -86.7)"  >
<path style="stroke: none; stroke-width: 1; stroke-dasharray: none; stroke-linecap: butt; stroke-dashoffset: 0; stroke-linejoin: miter; stroke-miterlimit: 4; fill: rgb(200,0,0); fill-rule: nonzero; opacity: 1;"  paint-order="stroke"  transform=" translate(-100, -13.3)" d="M 61.1 18.5 C 73.3 12.6 86.4 9.7 100 9.7 C 113.7 9.7 126.8 12.7 139 18.6 L 139.2 18.700000000000003 L 140.1 17.1 L 139.9 17 C 127.4 11 113.9 7.9 100 7.9 C 86.1 7.9 72.7 11 60.2 17 L 59.9 17 L 60.8 18.6 L 61.1 18.5 z" stroke-linecap="round" />
</g>
		<g transform="matrix(1 0 0 1 -45.4 -79.1)"  >
<linearGradient id="SVGID_11577_18609" gradientUnits="userSpaceOnUse" gradientTransform="matrix(1 0 0 1 52 18.9)"  x1="0" y1="0" x2="0" y2="5">
<stop offset="0%" style="stop-color:rgb(250,217,97);stop-opacity: 1"/>
<stop offset="100%" style="stop-color:rgb(247,107,28);stop-opacity: 1"/>
</linearGradient>
<path style="stroke: none; stroke-width: 1; stroke-dasharray: none; stroke-linecap: butt; stroke-dashoffset: 0; stroke-linejoin: miter; stroke-miterlimit: 4; fill: url(#SVGID_11577_18609); fill-rule: nonzero; opacity: 1;"  paint-order="stroke"  transform=" translate(-54.6, -20.9)" d="M 56.1 19 C 54.800000000000004 19.7 53.5 20.5 52.2 21.2 L 52 21.3 L 52.9 22.900000000000002 L 53.1 22.8 C 54.4 22 55.7 21.3 57 20.6 L 57.2 20.5 L 56.300000000000004 18.9 L 56.1 19 z" stroke-linecap="round" />
</g>
		<g transform="matrix(1 0 0 1 45.400000000000006 -79)"  >
<linearGradient id="SVGID_11577_18610" gradientUnits="userSpaceOnUse" gradientTransform="matrix(1 0 0 1 142.8 19)"  x1="0" y1="0" x2="0" y2="5">
<stop offset="0%" style="stop-color:rgb(250,217,97);stop-opacity: 1"/>
<stop offset="100%" style="stop-color:rgb(247,107,28);stop-opacity: 1"/>
</linearGradient>
<path style="stroke: none; stroke-width: 1; stroke-dasharray: none; stroke-linecap: butt; stroke-dashoffset: 0; stroke-linejoin: miter; stroke-miterlimit: 4; fill: url(#SVGID_11577_18610); fill-rule: nonzero; opacity: 1;"  paint-order="stroke"  transform=" translate(-145.4, -21)" d="M 147.1 23 L 148 21.4 L 147.8 21.299999999999997 C 146.5 20.499999999999996 145.20000000000002 19.799999999999997 143.9 19.099999999999998 L 143.70000000000002 18.999999999999996 L 142.8 20.599999999999998 L 143 20.7 C 144.3 21.4 145.6 22.2 146.9 22.9 L 147.1 23 z" stroke-linecap="round" />
</g>
		<g transform="matrix(1 0 0 1 71.25 -41.74999999999999)"  >
<path style="stroke: none; stroke-width: 1; stroke-dasharray: none; stroke-linecap: butt; stroke-dashoffset: 0; stroke-linejoin: miter; stroke-miterlimit: 4; fill: rgb(200,0,0); fill-rule: nonzero; opacity: 1;"  paint-order="stroke"  transform=" translate(-171.25, -58.25000000000001)" d="M 190 92.8 L 190 93 L 191.9 93 L 191.9 92.7 C 189.70000000000002 64.7 175 39.5 151.7 23.60000000000001 L 151.5 23.500000000000007 L 150.6 25.10000000000001 L 150.79999999999998 25.20000000000001 C 173.5 40.8 187.8 65.4 190 92.8 z" stroke-linecap="round" />
</g>
		<g transform="matrix(1 0 0 1 91.17222222222222 -0.5)"  >
<linearGradient id="SVGID_11579_18613" gradientUnits="userSpaceOnUse" gradientTransform="matrix(1 0 0 1 190.2 97)"  x1="0" y1="0" x2="0" y2="6">
<stop offset="0%" style="stop-color:rgb(250,217,97);stop-opacity: 1"/>
<stop offset="100%" style="stop-color:rgb(247,107,28);stop-opacity: 1"/>
</linearGradient>
<path style="stroke: none; stroke-width: 1; stroke-dasharray: none; stroke-linecap: butt; stroke-dashoffset: 0; stroke-linejoin: miter; stroke-miterlimit: 4; fill: url(#SVGID_11579_18613); fill-rule: nonzero; opacity: 1;"  paint-order="stroke"  transform=" translate(-191.17222222222222, -99.5)" d="M 192.1 98 L 192.1 97 L 190.2 97 L 190.2 98 C 190.2 98.7 190.2 99.3 190.2 100 C 190.2 100.3 190.2 100.7 190.2 101 C 190.2 101.2 190.2 102 190.2 102 L 192.1 102 C 192.1 102 192.1 101.3 192.1 101 C 192.1 100.7 192.1 100.3 192.1 100 C 192.2 99.3 192.1 98.7 192.1 98 z" stroke-linecap="round" />
</g>
		<g transform="matrix(1 0 0 1 0.04999999999999716 86.6)"  >
<path style="stroke: none; stroke-width: 1; stroke-dasharray: none; stroke-linecap: butt; stroke-dashoffset: 0; stroke-linejoin: miter; stroke-miterlimit: 4; fill: rgb(200,0,0); fill-rule: nonzero; opacity: 1;"  paint-order="stroke"  transform=" translate(-100.05, -186.6)" d="M 139.5 181.2 C 127.1 187.2 113.8 190.29999999999998 100 190.29999999999998 C 86.2 190.29999999999998 73 187.29999999999998 60.6 181.2 L 60.4 181.1 L 59.5 182.7 L 59.7 182.79999999999998 C 72.3 188.99999999999997 85.9 192.1 100 192.1 C 114.1 192.1 127.7 189 140.4 182.79999999999998 L 140.6 182.7 L 139.7 181.1 L 139.5 181.2 z" stroke-linecap="round" />
</g>
		<g transform="matrix(1 0 0 1 -45.7 78.85000000000002)"  >
<linearGradient id="SVGID_11577_18611" gradientUnits="userSpaceOnUse" gradientTransform="matrix(1 0 0 1 51.699999999999996 176.8)"  x1="0" y1="0" x2="0" y2="5">
<stop offset="0%" style="stop-color:rgb(250,217,97);stop-opacity: 1"/>
<stop offset="100%" style="stop-color:rgb(247,107,28);stop-opacity: 1"/>
</linearGradient>
<path style="stroke: none; stroke-width: 1; stroke-dasharray: none; stroke-linecap: butt; stroke-dashoffset: 0; stroke-linejoin: miter; stroke-miterlimit: 4; fill: url(#SVGID_11577_18611); fill-rule: nonzero; opacity: 1;"  paint-order="stroke"  transform=" translate(-54.3, -178.85000000000002)" d="M 52.8 176.9 L 52.599999999999994 176.8 L 51.699999999999996 178.4 L 51.9 178.5 C 53.199999999999996 179.3 54.5 180 55.8 180.8 L 56 180.9 L 56.9 179.3 L 56.699999999999996 179.20000000000002 C 55.3 178.5 54 177.7 52.8 176.9 z" stroke-linecap="round" />
</g>
		<g transform="matrix(1 0 0 1 45.80000000000001 78.85000000000002)"  >
<linearGradient id="SVGID_11577_18612" gradientUnits="userSpaceOnUse" gradientTransform="matrix(1 0 0 1 143.20000000000002 176.8)"  x1="0" y1="0" x2="0" y2="5">
<stop offset="0%" style="stop-color:rgb(250,217,97);stop-opacity: 1"/>
<stop offset="100%" style="stop-color:rgb(247,107,28);stop-opacity: 1"/>
</linearGradient>
<path style="stroke: none; stroke-width: 1; stroke-dasharray: none; stroke-linecap: butt; stroke-dashoffset: 0; stroke-linejoin: miter; stroke-miterlimit: 4; fill: url(#SVGID_11577_18612); fill-rule: nonzero; opacity: 1;"  paint-order="stroke"  transform=" translate(-145.8, -178.85000000000002)" d="M 147.3 176.9 C 146 177.70000000000002 144.70000000000002 178.4 143.4 179.20000000000002 L 143.20000000000002 179.3 L 144.10000000000002 180.9 L 144.3 180.8 C 145.60000000000002 180.10000000000002 146.9 179.3 148.20000000000002 178.5 L 148.4 178.4 L 147.5 176.8 L 147.3 176.9 z" stroke-linecap="round" />
</g>
		<g transform="matrix(1 0 0 1 -91.15 -0.5)"  >
<linearGradient id="SVGID_11579_18614" gradientUnits="userSpaceOnUse" gradientTransform="matrix(1 0 0 1 7.900000000000001 97)"  x1="0" y1="0" x2="0" y2="6">
<stop offset="0%" style="stop-color:rgb(250,217,97);stop-opacity: 1"/>
<stop offset="100%" style="stop-color:rgb(247,107,28);stop-opacity: 1"/>
</linearGradient>
<path style="stroke: none; stroke-width: 1; stroke-dasharray: none; stroke-linecap: butt; stroke-dashoffset: 0; stroke-linejoin: miter; stroke-miterlimit: 4; fill: url(#SVGID_11579_18614); fill-rule: nonzero; opacity: 1;"  paint-order="stroke"  transform=" translate(-8.850000000000001, -99.5)" d="M 9.7 101 C 9.7 100.7 9.7 100.3 9.7 100 C 9.7 99.3 9.7 98.7 9.7 98 L 9.7 97 L 7.9 97 L 7.9 98 C 7.9 98.7 7.9 99.3 7.9 100 C 7.9 100.4 7.9 100.7 7.9 101.1 L 7.9 102 L 9.8 102 L 9.7 101 z" stroke-linecap="round" />
</g>
		<g transform="matrix(1 0 0 1 71.4 41)"  >
<path style="stroke: none; stroke-width: 1; stroke-dasharray: none; stroke-linecap: butt; stroke-dashoffset: 0; stroke-linejoin: miter; stroke-miterlimit: 4; fill: rgb(200,0,0); fill-rule: nonzero; opacity: 1;"  paint-order="stroke"  transform=" translate(-171.4, -141)" d="M 190.1 106.2 C 188.2 133.8 174 158.7 151.1 174.4 L 150.9 174.5 L 151.8 176.1 L 152 176 C 175.5 159.9 190 134.5 191.9 106.2 L 191.9 105.9 L 190 105.9 L 190.1 106.2 z" stroke-linecap="round" />
</g>
		<g transform="matrix(1 0 0 1 -71.35 41.14999999999998)"  >
<path style="stroke: none; stroke-width: 1; stroke-dasharray: none; stroke-linecap: butt; stroke-dashoffset: 0; stroke-linejoin: miter; stroke-miterlimit: 4; fill: rgb(200,0,0); fill-rule: nonzero; opacity: 1;"  paint-order="stroke"  transform=" translate(-28.65, -141.14999999999998)" d="M 9.9 106.2 L 9.9 106 L 8.1 106 L 8.1 106.3 C 10 134.6 24.6 160 48.1 176.1 L 48.300000000000004 176.29999999999998 L 49.2 174.7 L 49 174.6 C 26.1 158.7 11.8 133.9 9.9 106.2 z" stroke-linecap="round" />
</g>
		<g transform="matrix(1 0 0 1 -71.15 -41.650000000000006)"  >
<path style="stroke: none; stroke-width: 1; stroke-dasharray: none; stroke-linecap: butt; stroke-dashoffset: 0; stroke-linejoin: miter; stroke-miterlimit: 4; fill: rgb(200,0,0); fill-rule: nonzero; opacity: 1;"  paint-order="stroke"  transform=" translate(-28.85, -58.349999999999994)" d="M 48.5 23.6 C 25 39.5 10.3 64.7 8.1 92.8 L 8.1 93.1 L 10 93.1 L 10 92.89999999999999 C 12.2 65.5 26.5 40.79999999999999 49.4 25.299999999999997 L 49.6 25.199999999999996 L 48.7 23.599999999999994 L 48.5 23.6 z" stroke-linecap="round" />
</g>
</g>
</g>
</g>
</g>
<g transform="matrix(1.9211538461538462 0 0 1.9211538461538462 641.6744431715745 719.6733884350853)" id="text-logo"  >
<g style=""  paint-order="stroke"   >
		<g transform="matrix(1 0 0 1 0 0)" id="text-logo-path-0"  >
<path style="stroke: none; stroke-width: 0.6545445263134516; stroke-dasharray: none; stroke-linecap: butt; stroke-dashoffset: 0; stroke-linejoin: miter; stroke-miterlimit: 4; fill: rgb(249,188,79); fill-rule: nonzero; opacity: 1;"  paint-order="stroke"  transform=" translate(-162.87499999999997, 14.705)" d="M 5.41 0 L 4.16 0 L 4.16 -29.41 L 9.29 -29.41 Q 14.83 -29.41 17.64 -27.37 Q 20.45 -25.33 20.45 -21.64 L 20.45 -21.64 Q 20.45 -17.43 16.92 -15.46 L 16.92 -15.46 L 14.58 -14.11 L 13.95 -15.2 L 16.3 -16.55 Q 19.2 -18.15 19.2 -21.64 L 19.2 -21.64 Q 19.2 -28.14 9.29 -28.14 L 9.29 -28.14 L 5.41 -28.14 L 5.41 0 Z M 37.33 0 L 36 0 L 46.7 -29.45 L 57.41 0 L 40.16 0 L 40.16 -1.25 L 55.6 -1.25 L 46.7 -25.74 L 37.33 0 Z M 76.53 -12.63 L 76.53 -12.63 L 76.53 -16.75 Q 76.53 -23.48 78.83 -26.65 Q 81.14 -29.82 86.31 -29.82 L 86.31 -29.82 Q 90.43 -29.82 92.48 -28.31 Q 94.53 -26.8 95.68 -24.01 L 95.68 -24.01 L 94.53 -23.48 Q 93.57 -25.92 91.8 -27.24 Q 90.04 -28.57 86.31 -28.57 L 86.31 -28.57 Q 84.26 -28.57 82.78 -28.03 Q 81.3 -27.5 80.13 -26.25 Q 78.95 -25 78.36 -22.62 Q 77.78 -20.24 77.78 -16.75 L 77.78 -16.75 L 77.78 -12.63 Q 77.78 -9.15 78.36 -6.78 Q 78.95 -4.41 80.13 -3.15 Q 81.3 -1.89 82.78 -1.36 Q 84.26 -0.84 86.31 -0.84 L 86.31 -0.84 Q 90.04 -0.84 91.8 -2.16 Q 93.57 -3.49 94.53 -5.93 L 94.53 -5.93 L 95.68 -5.37 Q 94.55 -2.6 92.49 -1.1 Q 90.43 0.41 86.31 0.41 L 86.31 0.41 Q 81.14 0.41 78.83 -2.76 Q 76.53 -5.93 76.53 -12.63 Z M 118.47 0 L 117.22 0 L 117.22 -29.41 L 118.47 -29.41 L 118.47 -15.96 L 133.58 -15.96 L 133.58 -29.41 L 134.86 -29.41 L 134.86 0 L 133.58 0 L 133.58 -14.7 L 118.47 -14.7 L 118.47 0 Z M 159.53 0 L 158.28 0 L 158.28 -29.41 L 159.53 -29.41 L 159.53 0 Z M 184.21 0 L 182.96 0 L 182.96 -29.41 L 184.41 -29.41 L 200.12 -2.24 L 200.12 -29.41 L 201.39 -29.41 L 201.39 0 L 186.22 0 L 186.22 -1.25 L 199.24 -1.25 L 184.21 -27.25 L 184.21 0 Z M 223.9 -12.63 L 223.9 -12.63 L 223.9 -16.75 Q 223.9 -23.48 226.2 -26.65 Q 228.51 -29.82 233.68 -29.82 Q 238.85 -29.82 241.16 -26.65 Q 243.46 -23.48 243.46 -16.75 L 243.46 -16.75 L 243.46 -12.63 Q 243.46 -5.91 241.16 -2.75 Q 238.85 0.41 233.68 0.41 Q 228.51 0.41 226.2 -2.76 Q 223.9 -5.93 223.9 -12.63 Z M 225.15 -16.75 L 225.15 -12.63 Q 225.15 -9.15 225.73 -6.78 Q 226.32 -4.41 227.5 -3.15 Q 228.68 -1.89 230.15 -1.36 Q 231.63 -0.84 233.68 -0.84 Q 235.73 -0.84 237.21 -1.36 Q 238.68 -1.89 239.85 -3.15 Q 241.02 -4.41 241.62 -6.78 Q 242.21 -9.15 242.21 -12.63 L 242.21 -12.63 L 242.21 -16.75 Q 242.21 -20.24 241.62 -22.62 Q 241.02 -25 239.85 -26.25 Q 238.68 -27.5 237.21 -28.03 Q 235.73 -28.57 233.68 -28.57 Q 231.63 -28.57 230.15 -28.03 Q 228.68 -27.5 227.5 -26.25 Q 226.32 -25 225.73 -22.62 Q 225.15 -20.24 225.15 -16.75 L 225.15 -16.75 Z M 264.04 -6.38 L 264.04 -6.38 L 265.21 -6.89 Q 266.05 -3.49 268.09 -2.16 Q 270.13 -0.84 273.74 -0.84 L 273.74 -0.84 Q 277.78 -0.84 279.73 -2.4 Q 281.67 -3.96 281.67 -7.9 L 281.67 -7.9 Q 281.67 -9.74 279.97 -11.17 Q 278.27 -12.59 275.81 -13.61 Q 273.35 -14.62 270.92 -15.67 Q 268.49 -16.71 266.79 -18.35 Q 265.08 -20 265.08 -22.13 L 265.08 -22.13 Q 265.08 -26.21 267.13 -28.01 Q 269.18 -29.82 273.82 -29.82 L 273.82 -29.82 Q 277.06 -29.82 279.03 -28.14 Q 281 -26.46 281.88 -23.01 L 281.88 -23.01 L 277.96 -20.08 L 275.91 -20.08 L 280.44 -23.48 Q 279.56 -26.29 277.91 -27.43 Q 276.26 -28.57 273.82 -28.57 L 273.82 -28.57 Q 272.14 -28.57 270.98 -28.35 Q 269.82 -28.14 268.67 -27.53 Q 267.52 -26.93 266.93 -25.58 Q 266.33 -24.24 266.33 -22.13 L 266.33 -22.13 Q 266.33 -20.28 268.04 -18.86 Q 269.74 -17.43 272.18 -16.43 Q 274.62 -15.42 277.07 -14.37 Q 279.52 -13.31 281.22 -11.67 Q 282.92 -10.03 282.92 -7.9 L 282.92 -7.9 Q 282.92 -3.69 280.84 -1.64 Q 278.76 0.41 273.74 0.41 L 273.74 0.41 Q 269.62 0.41 267.27 -1.24 Q 264.92 -2.89 264.04 -6.38 Z M 302.7 -6.38 L 302.7 -6.38 L 303.87 -6.89 Q 304.71 -3.49 306.75 -2.16 Q 308.79 -0.84 312.4 -0.84 L 312.4 -0.84 Q 316.44 -0.84 318.39 -2.4 Q 320.34 -3.96 320.34 -7.9 L 320.34 -7.9 Q 320.34 -9.74 318.63 -11.17 Q 316.93 -12.59 314.47 -13.61 Q 312.01 -14.62 309.58 -15.67 Q 307.15 -16.71 305.45 -18.35 Q 303.75 -20 303.75 -22.13 L 303.75 -22.13 Q 303.75 -26.21 305.8 -28.01 Q 307.85 -29.82 312.48 -29.82 L 312.48 -29.82 Q 315.72 -29.82 317.69 -28.14 Q 319.66 -26.46 320.54 -23.01 L 320.54 -23.01 L 316.63 -20.08 L 314.57 -20.08 L 319.11 -23.48 Q 318.22 -26.29 316.57 -27.43 Q 314.92 -28.57 312.48 -28.57 L 312.48 -28.57 Q 310.8 -28.57 309.64 -28.35 Q 308.48 -28.14 307.34 -27.53 Q 306.19 -26.93 305.59 -25.58 Q 305 -24.24 305 -22.13 L 305 -22.13 Q 305 -20.28 306.7 -18.86 Q 308.4 -17.43 310.84 -16.43 Q 313.28 -15.42 315.73 -14.37 Q 318.18 -13.31 319.89 -11.67 Q 321.59 -10.03 321.59 -7.9 L 321.59 -7.9 Q 321.59 -3.69 319.51 -1.64 Q 317.42 0.41 312.4 0.41 L 312.4 0.41 Q 308.28 0.41 305.93 -1.24 Q 303.58 -2.89 302.7 -6.38 Z" stroke-linecap="round" />
</g>
</g>
</g>
<g transform="matrix(1.9211538461538462 0 0 1.9211538461538462 640.0000684786282 428.8300791692925)" id="tagline-6cb99a38-efd5-424c-aab7-3ba1885aaca9-logo"  >
<g style=""  paint-order="stroke"   >
		<g transform="matrix(1 0 0 1 0 0)" id="tagline-6cb99a38-efd5-424c-aab7-3ba1885aaca9-logo-path-0"  >
<linearGradient id="SVGID_18615" gradientUnits="userSpaceOnUse" gradientTransform="matrix(1 0 0 1 2.1900000000000013 -51.1)"  x1="-2.1899999999999977" y1="-13.077219999999983" x2="-2.1899999999999977" y2="68.92278000000002">
<stop offset="0%" style="stop-color:rgb(250,217,97);stop-opacity: 1"/>
<stop offset="100%" style="stop-color:rgb(247,107,28);stop-opacity: 1"/>
</linearGradient>
<path style="stroke: none; stroke-width: 0; stroke-dasharray: none; stroke-linecap: butt; stroke-dashoffset: 0; stroke-linejoin: miter; stroke-miterlimit: 4; fill: url(#SVGID_18615); fill-rule: nonzero; opacity: 1;"  paint-order="stroke"  transform=" translate(-20.220000000000002, 25.55)" d="M 2.19 0 L 7.59 0 L 7.59 -15.4 L 20.44 -15.4 C 30.29 -15.4 38.25 -23.43 38.25 -33.29 C 38.25 -43.14 30.29 -51.1 20.44 -51.1 L 2.19 -51.1 Z M 17.01 -17.45 L 7.59 -17.45 L 7.59 -49.06 L 17.01 -49.06 C 25.77 -49.06 32.85 -41.97 32.85 -33.29 C 32.85 -24.53 25.77 -17.45 17.01 -17.45 Z" stroke-linecap="round" />
</g>
</g>
</g>
<g transform="matrix(1.9211538461538462 0 0 1.9211538461538462 639.4287553012721 785.0544252703373)" id="tagline-9f0f4bff-1290-44ba-b4be-833fd7bfd86e-logo"  >
<g style=""  paint-order="stroke"   >
		<g transform="matrix(1 0 0 1 0 0)" id="tagline-9f0f4bff-1290-44ba-b4be-833fd7bfd86e-logo-path-0"  >
<path style="stroke: none; stroke-width: 0; stroke-dasharray: none; stroke-linecap: butt; stroke-dashoffset: 0; stroke-linejoin: miter; stroke-miterlimit: 4; fill: rgb(249,188,79); fill-rule: nonzero; opacity: 1;"  paint-order="stroke"  transform=" translate(-101.875, 5.6)" d="M 3.12 0 L 1.59 0 L 1.59 -11.2 L 3.12 -11.2 Q 5.42 -11.2 7.02 -9.5 Q 8.63 -7.8 8.63 -5.6 Q 8.63 -3.39 7.02 -1.7 Q 5.42 0 3.12 0 L 3.12 0 Z M 2.06 -10.72 L 2.06 -0.48 L 3.12 -0.48 Q 5.21 -0.48 6.68 -2.02 Q 8.14 -3.57 8.14 -5.6 Q 8.14 -7.63 6.68 -9.18 Q 5.22 -10.72 3.12 -10.72 L 3.12 -10.72 L 2.06 -10.72 Z M 30.56 0 L 23.87 0 L 23.87 -11.2 L 30.93 -11.2 L 26.03 -6.34 L 29.61 -6.34 L 29.61 -5.86 L 24.86 -5.86 L 29.75 -10.72 L 24.35 -10.72 L 24.35 -0.48 L 30.56 -0.48 L 30.56 0 Z M 48.65 0.02 L 44.57 -11.2 L 45.08 -11.2 L 48.65 -1.39 L 52.04 -10.72 L 46.17 -10.72 L 46.17 -11.2 L 52.73 -11.2 L 48.65 0.02 Z M 84.55 -4.81 L 84.55 -4.81 L 84.55 -6.38 Q 84.55 -8.95 85.43 -10.15 Q 86.31 -11.36 88.28 -11.36 L 88.28 -11.36 Q 89.85 -11.36 90.63 -10.79 Q 91.41 -10.21 91.85 -9.15 L 91.85 -9.15 L 91.41 -8.95 Q 91.04 -9.88 90.37 -10.38 Q 89.7 -10.88 88.28 -10.88 L 88.28 -10.88 Q 87.5 -10.88 86.93 -10.68 Q 86.37 -10.48 85.92 -10 Q 85.47 -9.52 85.25 -8.62 Q 85.03 -7.71 85.03 -6.38 L 85.03 -6.38 L 85.03 -4.81 Q 85.03 -3.48 85.25 -2.58 Q 85.47 -1.68 85.92 -1.2 Q 86.37 -0.72 86.93 -0.52 Q 87.5 -0.32 88.28 -0.32 L 88.28 -0.32 Q 89.7 -0.32 90.37 -0.82 Q 91.04 -1.33 91.41 -2.26 L 91.41 -2.26 L 91.85 -2.05 Q 91.42 -0.99 90.63 -0.42 Q 89.85 0.16 88.28 0.16 L 88.28 0.16 Q 86.31 0.16 85.43 -1.05 Q 84.55 -2.26 84.55 -4.81 Z M 106.74 -4.81 L 106.74 -4.81 L 106.74 -6.38 Q 106.74 -8.95 107.62 -10.15 Q 108.5 -11.36 110.47 -11.36 Q 112.44 -11.36 113.32 -10.15 Q 114.2 -8.95 114.2 -6.38 L 114.2 -6.38 L 114.2 -4.81 Q 114.2 -2.25 113.32 -1.05 Q 112.44 0.16 110.47 0.16 Q 108.5 0.16 107.62 -1.05 Q 106.74 -2.26 106.74 -4.81 Z M 107.22 -6.38 L 107.22 -4.81 Q 107.22 -3.48 107.44 -2.58 Q 107.66 -1.68 108.11 -1.2 Q 108.56 -0.72 109.13 -0.52 Q 109.69 -0.32 110.47 -0.32 Q 111.25 -0.32 111.81 -0.52 Q 112.38 -0.72 112.82 -1.2 Q 113.27 -1.68 113.49 -2.58 Q 113.72 -3.48 113.72 -4.81 L 113.72 -4.81 L 113.72 -6.38 Q 113.72 -7.71 113.49 -8.62 Q 113.27 -9.52 112.82 -10 Q 112.38 -10.48 111.81 -10.68 Q 111.25 -10.88 110.47 -10.88 Q 109.69 -10.88 109.13 -10.68 Q 108.56 -10.48 108.11 -10 Q 107.66 -9.52 107.44 -8.62 Q 107.22 -7.71 107.22 -6.38 L 107.22 -6.38 Z M 131.34 0 L 129.81 0 L 129.81 -11.2 L 131.34 -11.2 Q 133.64 -11.2 135.25 -9.5 Q 136.85 -7.8 136.85 -5.6 Q 136.85 -3.39 135.25 -1.7 Q 133.64 0 131.34 0 L 131.34 0 Z M 130.28 -10.72 L 130.28 -0.48 L 131.34 -0.48 Q 133.43 -0.48 134.9 -2.02 Q 136.36 -3.57 136.36 -5.6 Q 136.36 -7.63 134.9 -9.18 Q 133.44 -10.72 131.34 -10.72 L 131.34 -10.72 L 130.28 -10.72 Z M 158.78 0 L 152.09 0 L 152.09 -11.2 L 159.15 -11.2 L 154.25 -6.34 L 157.83 -6.34 L 157.83 -5.86 L 153.08 -5.86 L 157.98 -10.72 L 152.57 -10.72 L 152.57 -0.48 L 158.78 -0.48 L 158.78 0 Z M 174.58 0 L 174.1 0 L 174.1 -11.2 L 176.06 -11.2 Q 178.17 -11.2 179.24 -10.43 Q 180.31 -9.65 180.31 -8.24 L 180.31 -8.24 Q 180.31 -6.64 178.96 -5.89 L 178.96 -5.89 L 178.42 -5.59 L 180.45 0 L 175.35 0 L 175.35 -0.48 L 179.77 -0.48 L 177.83 -5.79 L 178.73 -6.3 Q 179.83 -6.91 179.83 -8.24 L 179.83 -8.24 Q 179.83 -10.72 176.06 -10.72 L 176.06 -10.72 L 174.58 -10.72 L 174.58 0 Z M 194.97 -2.43 L 194.97 -2.43 L 195.41 -2.63 Q 195.73 -1.33 196.51 -0.82 Q 197.29 -0.32 198.66 -0.32 L 198.66 -0.32 Q 200.2 -0.32 200.94 -0.91 Q 201.68 -1.51 201.68 -3.01 L 201.68 -3.01 Q 201.68 -3.71 201.04 -4.25 Q 200.39 -4.8 199.45 -5.18 Q 198.51 -5.57 197.59 -5.97 Q 196.66 -6.37 196.01 -6.99 Q 195.36 -7.62 195.36 -8.43 L 195.36 -8.43 Q 195.36 -9.98 196.15 -10.67 Q 196.93 -11.36 198.69 -11.36 L 198.69 -11.36 Q 199.93 -11.36 200.68 -10.72 Q 201.43 -10.08 201.76 -8.77 L 201.76 -8.77 L 200.27 -7.65 L 199.49 -7.65 L 201.22 -8.95 Q 200.88 -10.02 200.25 -10.45 Q 199.62 -10.88 198.69 -10.88 L 198.69 -10.88 Q 198.05 -10.88 197.61 -10.8 Q 197.17 -10.72 196.73 -10.49 Q 196.29 -10.26 196.07 -9.75 Q 195.84 -9.23 195.84 -8.43 L 195.84 -8.43 Q 195.84 -7.73 196.49 -7.18 Q 197.14 -6.64 198.07 -6.26 Q 199 -5.88 199.93 -5.47 Q 200.86 -5.07 201.51 -4.45 Q 202.16 -3.82 202.16 -3.01 L 202.16 -3.01 Q 202.16 -1.41 201.37 -0.63 Q 200.58 0.16 198.66 0.16 L 198.66 0.16 Q 197.09 0.16 196.2 -0.47 Q 195.3 -1.1 194.97 -2.43 Z" stroke-linecap="round" />
</g>
</g>
</g>
</svg>